<svg width="26" height="26" viewBox="0 0 26 26" fill="none" xmlns="http://www.w3.org/2000/svg">
<g clip-path="url(#clip0_5_513)">
<path d="M4.18567 11.5535C3.31683 11.5535 2.61548 12.2549 2.61548 13.1237C2.61548 13.9926 3.31683 14.6939 4.18567 14.6939C5.05451 14.6939 5.75586 13.9926 5.75586 13.1237C5.75586 12.2549 5.05451 11.5535 4.18567 11.5535ZM4.18567 5.27277C3.31683 5.27277 2.61548 5.97412 2.61548 6.84296C2.61548 7.71179 3.31683 8.41315 4.18567 8.41315C5.05451 8.41315 5.75586 7.71179 5.75586 6.84296C5.75586 5.97412 5.05451 5.27277 4.18567 5.27277ZM4.18567 17.8343C3.31683 17.8343 2.61548 18.5461 2.61548 19.4045C2.61548 20.2628 3.3273 20.9747 4.18567 20.9747C5.04404 20.9747 5.75586 20.2628 5.75586 19.4045C5.75586 18.5461 5.05451 17.8343 4.18567 17.8343ZM7.32605 20.4513H21.9812V18.3577H7.32605V20.4513ZM7.32605 14.1705H21.9812V12.0769H7.32605V14.1705ZM7.32605 5.79616V7.88975H21.9812V5.79616H7.32605Z" fill="#808080"/>
</g>
<defs>
<clipPath id="clip0_5_513">
<rect width="25.123" height="25.123" fill="white" transform="translate(-0.00219727 0.561523)"/>
</clipPath>
</defs>
</svg>
