<svg width="42" height="66" viewBox="0 0 42 66" fill="none" xmlns="http://www.w3.org/2000/svg">
<path d="M19.3391 65.114C18.3291 65.114 17.342 64.8615 16.3779 64.3565C15.4138 63.8515 14.7252 63.0252 14.312 61.8774C14.2661 61.7397 14.312 61.6249 14.4498 61.5331C14.5875 61.4872 14.7023 61.579 14.7941 61.8086C15.2532 62.6808 15.827 63.3236 16.5157 63.7367C17.2502 64.1499 18.0077 64.3565 18.7881 64.3565C18.9718 64.3565 19.1554 64.3336 19.3391 64.2876C19.5686 64.2876 19.7752 64.2647 19.9588 64.2188C21.5197 63.8515 22.7363 62.9333 23.6086 61.4643C24.5268 59.9952 25.1695 58.2736 25.5367 56.2995C25.9499 54.3254 26.2024 52.3284 26.2942 50.3084C26.3861 48.3343 26.409 46.6357 26.3631 45.2125C25.0777 45.9471 23.7463 46.5898 22.369 47.1407C21.0377 47.6916 19.6375 48.1507 18.1684 48.518C17.4797 48.7016 16.6763 48.8623 15.7582 49C14.8859 49.0918 13.9448 49.1377 12.9348 49.1377C11.1443 49.1377 9.37683 48.8164 7.6323 48.1736C5.93367 47.485 4.76299 46.1996 4.12027 44.3173C3.93664 43.8582 3.82186 43.3991 3.77595 42.94C3.73005 42.435 3.70709 41.953 3.70709 41.4939C3.70709 40.1625 3.89073 38.8771 4.258 37.6376C4.67118 36.3521 5.10731 35.2044 5.5664 34.1944C4.5105 33.5517 3.56936 32.7712 2.74301 31.853C1.96255 30.9349 1.36574 29.879 0.95256 28.6853C0.768925 28.1344 0.631198 27.5835 0.53938 27.0326C0.447563 26.4817 0.401654 25.9538 0.401654 25.4488C0.401654 23.3829 0.975515 21.5006 2.12324 19.802C3.27096 18.0574 4.69413 16.5884 6.39276 15.3947C8.09139 14.2011 9.76706 13.4206 11.4198 13.0534C11.6034 13.0075 12.0166 12.9386 12.6593 12.8468C13.3479 12.755 13.9907 12.7091 14.5875 12.7091C15.322 12.7091 15.7123 12.8009 15.7582 12.9845C15.85 13.1681 15.7811 13.26 15.5516 13.26C14.9088 13.26 14.2891 13.26 13.6923 13.26C13.0955 13.26 12.4757 13.3288 11.833 13.4666C10.2721 13.8338 8.73411 14.5684 7.21912 15.6702C5.75003 16.7261 4.5105 18.0345 3.5005 19.5954C2.53642 21.1563 2.05437 22.8779 2.05437 24.7601C2.05437 25.2651 2.10028 25.7931 2.1921 26.344C2.28392 26.849 2.42164 27.3769 2.60528 27.9278C3.29391 29.856 4.53345 31.4399 6.32389 32.6794C7.83889 29.7871 9.51456 27.2622 11.3509 25.1044C13.1873 22.9008 15.1154 20.812 17.1354 18.8379C19.1554 16.8179 21.1984 14.6831 23.2643 12.4336C23.2643 12.0204 23.2413 11.5843 23.1954 11.1252C23.1954 10.6661 23.1954 10.207 23.1954 9.74793C23.1954 8.64612 23.2413 7.54431 23.3331 6.4425C23.4708 5.29478 23.7233 4.30774 24.0906 3.48138C24.3661 2.88456 24.7104 2.28775 25.1236 1.69093C25.5827 1.04821 26.1565 0.726848 26.8451 0.726848C27.3042 0.726848 27.6945 0.88753 28.0158 1.20889C28.3372 1.48435 28.5897 1.85162 28.7733 2.3107C28.957 2.72388 29.0488 3.22888 29.0488 3.8257C29.0488 4.83569 28.7733 5.84569 28.2224 6.85568C27.7174 7.86567 27.1206 8.8068 26.432 9.67907C25.7433 10.5054 25.1236 11.24 24.5727 11.8827C24.5727 13.765 24.7104 15.6931 24.9858 17.6672C25.3072 19.5954 25.6056 21.5006 25.8811 23.3829C26.937 22.0515 28.1765 20.812 29.5997 19.6642C31.0688 18.4706 32.6526 17.6672 34.3512 17.254C34.9022 17.1163 35.499 17.0474 36.1417 17.0474C37.0599 17.0474 37.9321 17.277 38.7585 17.7361C39.6308 18.1493 40.2735 18.9527 40.6867 20.1463C40.9621 20.9726 41.0998 21.8908 41.0998 22.9008C41.0998 24.0945 40.9392 25.334 40.6178 26.6194C40.2964 27.859 39.9751 28.9378 39.6537 29.856C38.5978 32.7024 37.1517 35.2733 35.3153 37.5687C33.479 39.8182 31.3442 41.7464 28.911 43.3532C28.957 44.0878 29.0029 44.8452 29.0488 45.6257C29.0947 46.4062 29.1176 47.1866 29.1176 47.9671C29.1176 50.3543 28.8881 52.7416 28.429 55.1288C28.0158 57.562 27.2354 59.6509 26.0877 61.3954C24.9399 63.1858 23.2413 64.3565 20.9918 64.9074C20.5327 65.0451 19.9818 65.114 19.3391 65.114ZM24.5727 10.9186C24.894 10.5513 25.3072 9.93157 25.8122 9.0593C26.3631 8.14113 26.8451 7.17704 27.2583 6.16705C27.6715 5.15705 27.8781 4.33069 27.8781 3.68797C27.8781 3.41252 27.8551 3.22888 27.8092 3.13706C27.7633 2.99934 27.6945 2.86161 27.6026 2.72388C27.5108 2.58616 27.3731 2.51729 27.1895 2.51729C26.914 2.51729 26.6156 2.72388 26.2942 3.13706C26.0188 3.50433 25.8352 3.82569 25.7433 4.10115C25.3302 4.97342 25.0317 6.09818 24.8481 7.47545C24.7104 8.80681 24.6186 9.95453 24.5727 10.9186ZM11.0066 34.1944C12.5216 34.1944 13.9677 33.8501 15.345 33.1614C16.7682 32.4269 18.0766 31.5317 19.2702 30.4758C20.4638 29.4199 21.4968 28.4099 22.369 27.4458C23.2872 26.4358 23.9758 25.6554 24.4349 25.1044C24.2054 23.1304 23.9758 21.1792 23.7463 19.2511C23.5627 17.277 23.402 15.3029 23.2643 13.3288C22.1624 14.5225 21.0377 15.6931 19.89 16.8409C18.7422 17.9886 17.6404 19.1822 16.5845 20.4217C15.3909 21.799 14.2661 23.2681 13.2102 24.829C12.2002 26.344 11.2591 27.9278 10.3868 29.5806C10.0196 30.2233 9.67524 30.889 9.35388 31.5776C9.03252 32.2662 8.71115 32.9778 8.38979 33.7124C9.21615 34.0337 10.0884 34.1944 11.0066 34.1944ZM28.7045 42.3203C30.8622 40.943 32.7444 39.3362 34.3512 37.4998C36.004 35.6176 37.2894 33.4139 38.2076 30.889C38.6208 29.7412 38.9192 28.7083 39.1028 27.7901C39.2864 26.826 39.3783 25.9538 39.3783 25.1733C39.3783 23.337 38.9421 21.9597 38.0699 21.0415C37.1976 20.1233 36.0728 19.6642 34.6956 19.6642C33.456 19.6642 32.0788 20.0545 30.5638 20.8349C29.0488 21.5695 27.5338 22.6942 26.0188 24.2092C26.4779 27.2392 26.9829 30.2692 27.5338 33.2992C28.1306 36.3292 28.5208 39.3362 28.7045 42.3203ZM15.4827 47.1407C16.2632 47.1407 17.0207 47.0948 17.7552 47.003C18.5356 46.8652 19.2243 46.7275 19.8211 46.5898C22.1165 46.0389 24.2513 45.2125 26.2254 44.1107C26.1795 41.0807 25.9729 38.0507 25.6056 35.0208C25.2842 31.9449 24.9399 28.869 24.5727 25.7931C24.0677 26.6653 23.3561 27.6753 22.4379 28.8231C21.5197 29.9249 20.4409 31.0037 19.2013 32.0596C17.9618 33.0696 16.6075 33.9189 15.1384 34.6076C13.7152 35.2962 12.2232 35.6405 10.6623 35.6405C9.7441 35.6405 8.82593 35.5028 7.90775 35.2273C7.72412 35.8701 7.54048 36.5817 7.35684 37.3621C7.21912 38.1426 7.15025 38.923 7.15025 39.7035C7.15025 40.6675 7.28798 41.6316 7.56343 42.5957C8.20616 44.3403 9.28502 45.5339 10.8 46.1766C12.3609 46.8193 13.9218 47.1407 15.4827 47.1407Z" fill="#FFA55C"/>
</svg>
