<svg viewBox="0 0 58 58" x="0" y="0" fill="none" xmlns="http://www.w3.org/2000/svg"><path id="Vector_5" d="M18.241,26.94c-0.264,0.28 -0.471,0.6 -0.609,0.96c-0.2901,0.7 -0.2901,1.5 0,2.2c0.138,0.36 0.345,0.68 0.609,0.96l8.7,8.7c0.5461,0.55 1.2867,0.85 2.059,0.85c0.7723,0 1.5129,-0.3 2.059,-0.85c0.5461,-0.55 0.8529,-1.29 0.8529,-2.06c0,-0.77 -0.3068,-1.51 -0.8529,-2.06l-3.77,-3.74h10.411c0.769,0 1.507,-0.31 2.051,-0.85c0.543,-0.54 0.849,-1.28 0.849,-2.05c0,-0.77 -0.306,-1.51 -0.849,-2.05c-0.544,-0.54 -1.282,-0.85 -2.051,-0.85h-10.411l3.77,-3.74c0.2718,-0.27 0.4875,-0.59 0.6348,-0.94c0.1472,-0.36 0.223,-0.74 0.223,-1.12c0,-0.38 -0.0758,-0.76 -0.223,-1.12c-0.1473,-0.35 -0.363,-0.67 -0.6348,-0.94c-0.2696,-0.27 -0.5903,-0.49 -0.9437,-0.63c-0.3534,-0.15 -0.7325,-0.23 -1.1153,-0.23c-0.3828,0 -0.7619,0.08 -1.1153,0.23c-0.3534,0.14 -0.6741,0.36 -0.9437,0.63zM0,29c0,5.74 1.7008,11.34 4.8874,16.11c3.1865,4.77 7.7157,8.49 13.0148,10.68c5.299,2.2 11.13,2.77 16.7558,1.65c5.625,-1.12 10.792,-3.88 14.848,-7.93c4.056,-4.06 6.818,-9.23 7.937,-14.85c1.119,-5.63 0.544,-11.46 -1.651,-16.76c-2.194,-5.3 -5.911,-9.83 -10.68,-13.01c-4.77,-3.19 -10.376,-4.89 -16.112,-4.89c-3.8083,0 -7.5794,0.75 -11.0978,2.21c-3.5185,1.45 -6.7154,3.59 -9.4083,6.28c-5.4386,5.44 -8.4939,12.82 -8.4939,20.51zM52.2,29c0,4.59 -1.361,9.07 -3.91,12.89c-2.549,3.81 -6.173,6.79 -10.412,8.54c-4.239,1.76 -8.9037,2.22 -13.4041,1.32c-4.5004,-0.89 -8.6342,-3.1 -11.8788,-6.35c-3.2446,-3.24 -5.4541,-7.37 -6.3493,-11.87c-0.8952,-4.5 -0.4358,-9.17 1.3202,-13.41c1.7559,-4.24 4.7295,-7.86 8.5448,-10.41c3.8152,-2.55 8.3007,-3.91 12.8892,-3.91c6.153,0 12.054,2.44 16.405,6.8c4.351,4.35 6.795,10.25 6.795,16.4z" fill="currentColor" xmlns="http://www.w3.org/2000/svg"/></svg>