<svg viewBox="0 0 58 58" x="0" y="0" fill="none" xmlns="http://www.w3.org/2000/svg"><path id="Vector_6" d="M40.14,31.13c0.28,-0.28 0.49,-0.62 0.63,-0.99c0.3,-0.73 0.3,-1.55 0,-2.28c-0.14,-0.37 -0.35,-0.71 -0.63,-0.99l-9.01,-9.01c-0.56,-0.57 -1.33,-0.89 -2.13,-0.89c-0.8,0 -1.57,0.32 -2.13,0.89c-0.57,0.56 -0.89,1.33 -0.89,2.13c0,0.8 0.32,1.57 0.89,2.13l3.9,3.88h-10.78c-0.8,0 -1.56,0.31 -2.12,0.88c-0.57,0.56 -0.88,1.32 -0.88,2.12c0,0.8 0.31,1.56 0.88,2.12c0.56,0.57 1.32,0.88 2.12,0.88h10.78l-3.9,3.88c-0.28,0.28 -0.51,0.61 -0.66,0.98c-0.15,0.36 -0.23,0.75 -0.23,1.15c0,0.4 0.08,0.79 0.23,1.16c0.15,0.36 0.38,0.69 0.66,0.97c0.28,0.28 0.61,0.51 0.97,0.66c0.37,0.15 0.76,0.23 1.16,0.23c0.4,0 0.79,-0.08 1.15,-0.23c0.37,-0.15 0.7,-0.38 0.98,-0.66zM59.04,29c0,-5.94 -1.77,-11.75 -5.07,-16.69c-3.3,-4.94 -7.99,-8.79 -13.48,-11.06c-5.48,-2.27 -11.52,-2.87 -17.35,-1.71c-5.83,1.16 -11.18,4.02 -15.38,8.22c-4.2,4.2 -7.06,9.55 -8.22,15.38c-1.16,5.83 -0.56,11.87 1.71,17.35c2.27,5.49 6.12,10.18 11.06,13.48c4.94,3.3 10.75,5.07 16.69,5.07c7.97,0 15.61,-3.17 21.24,-8.8c5.63,-5.63 8.8,-13.27 8.8,-21.24zM4.97,29c0,-4.75 1.41,-9.4 4.05,-13.35c2.64,-3.95 6.39,-7.03 10.78,-8.85c4.4,-1.82 9.23,-2.29 13.89,-1.37c4.66,0.93 8.94,3.22 12.3,6.58c3.36,3.36 5.65,7.64 6.58,12.3c0.92,4.66 0.45,9.49 -1.37,13.89c-1.82,4.39 -4.9,8.14 -8.85,10.78c-3.95,2.64 -8.6,4.05 -13.35,4.05c-6.37,0 -12.48,-2.53 -16.99,-7.04c-4.51,-4.51 -7.04,-10.62 -7.04,-16.99z" fill="currentColor" xmlns="http://www.w3.org/2000/svg"/></svg>