<svg viewBox="0 0 19.3657 15.7019" x="0" y="0" fill="none" xmlns="http://www.w3.org/2000/svg"><path id="Vector_3" d="M1.5745,6.2772c-0.87,0 -1.57,0.7 -1.57,1.57c0,0.87 0.7,1.57 1.57,1.57c0.86,0 1.57,-0.7 1.57,-1.57c0,-0.87 -0.71,-1.57 -1.57,-1.57zM1.5745,-0.0028c-0.87,0 -1.57,0.7 -1.57,1.57c0,0.87 0.7,1.57 1.57,1.57c0.86,0 1.57,-0.7 1.57,-1.57c0,-0.87 -0.71,-1.57 -1.57,-1.57zM1.5745,12.5572c-0.87,0 -1.57,0.72 -1.57,1.57c0,0.86 0.71,1.57 1.57,1.57c0.85,0 1.57,-0.71 1.57,-1.57c0,-0.85 -0.71,-1.57 -1.57,-1.57zM4.7145,15.1772h14.65v-2.09h-14.65zM4.7145,8.8972h14.65v-2.09h-14.65zM4.7145,0.5272v2.09h14.65v-2.09z" fill="currentColor" xmlns="http://www.w3.org/2000/svg"/></svg>