<svg width="520" height="539" viewBox="0 0 520 539" fill="none" xmlns="http://www.w3.org/2000/svg">
<g clip-path="url(#clip0_5_125)">
<line x1="518.543" y1="518.485" x2="-0.00189209" y2="518.485" stroke="white" stroke-opacity="0.22" stroke-width="2.00209"/>
<line x1="518.543" y1="498.464" x2="-0.00189209" y2="498.464" stroke="white" stroke-opacity="0.22" stroke-width="2.00209"/>
<line x1="518.543" y1="478.443" x2="-0.00189209" y2="478.443" stroke="white" stroke-opacity="0.22" stroke-width="2.00209"/>
<line x1="518.543" y1="458.422" x2="-0.00189209" y2="458.422" stroke="white" stroke-opacity="0.22" stroke-width="2.00209"/>
<line x1="518.543" y1="438.401" x2="-0.00189209" y2="438.401" stroke="white" stroke-opacity="0.22" stroke-width="2.00209"/>
<line x1="518.543" y1="418.38" x2="-0.00189209" y2="418.38" stroke="white" stroke-opacity="0.22" stroke-width="2.00209"/>
<line x1="518.543" y1="398.36" x2="-0.00189209" y2="398.36" stroke="white" stroke-opacity="0.22" stroke-width="2.00209"/>
<line x1="518.543" y1="378.339" x2="-0.00189209" y2="378.339" stroke="white" stroke-opacity="0.22" stroke-width="2.00209"/>
<line x1="518.543" y1="358.318" x2="-0.00189209" y2="358.318" stroke="white" stroke-opacity="0.22" stroke-width="2.00209"/>
<line x1="518.543" y1="338.297" x2="-0.00189209" y2="338.297" stroke="white" stroke-opacity="0.22" stroke-width="2.00209"/>
<line x1="518.543" y1="318.276" x2="-0.00189209" y2="318.276" stroke="white" stroke-opacity="0.22" stroke-width="2.00209"/>
<line x1="518.543" y1="298.255" x2="-0.00189209" y2="298.255" stroke="white" stroke-opacity="0.22" stroke-width="2.00209"/>
<line x1="518.543" y1="278.234" x2="-0.00189209" y2="278.234" stroke="white" stroke-opacity="0.22" stroke-width="2.00209"/>
<line x1="518.543" y1="258.213" x2="-0.00189209" y2="258.213" stroke="white" stroke-opacity="0.22" stroke-width="2.00209"/>
<line x1="518.543" y1="238.193" x2="-0.00189209" y2="238.193" stroke="white" stroke-opacity="0.22" stroke-width="2.00209"/>
<line x1="518.543" y1="218.172" x2="-0.00189209" y2="218.172" stroke="white" stroke-opacity="0.22" stroke-width="2.00209"/>
<line x1="518.543" y1="198.151" x2="-0.00189209" y2="198.151" stroke="white" stroke-opacity="0.22" stroke-width="2.00209"/>
<line x1="518.543" y1="178.13" x2="-0.00189209" y2="178.13" stroke="white" stroke-opacity="0.22" stroke-width="2.00209"/>
<line x1="518.543" y1="158.109" x2="-0.00189209" y2="158.109" stroke="white" stroke-opacity="0.22" stroke-width="2.00209"/>
<line x1="518.543" y1="138.088" x2="-0.00189209" y2="138.088" stroke="white" stroke-opacity="0.22" stroke-width="2.00209"/>
<line x1="518.543" y1="118.067" x2="-0.00189209" y2="118.067" stroke="white" stroke-opacity="0.22" stroke-width="2.00209"/>
<line x1="518.543" y1="98.0464" x2="-0.00189209" y2="98.0464" stroke="white" stroke-opacity="0.22" stroke-width="2.00209"/>
<line x1="518.543" y1="78.0255" x2="-0.00189209" y2="78.0255" stroke="white" stroke-opacity="0.22" stroke-width="2.00209"/>
<line x1="518.543" y1="58.0046" x2="-0.00189209" y2="58.0046" stroke="white" stroke-opacity="0.22" stroke-width="2.00209"/>
<line x1="518.543" y1="37.9838" x2="-0.00189209" y2="37.9838" stroke="white" stroke-opacity="0.22" stroke-width="2.00209"/>
<line x1="518.543" y1="17.9629" x2="-0.00189209" y2="17.9629" stroke="white" stroke-opacity="0.22" stroke-width="2.00209"/>
<line x1="18.0188" y1="538.522" x2="18.0188" y2="-0.0726624" stroke="white" stroke-opacity="0.22" stroke-width="2.00209"/>
<line x1="38.0397" y1="538.522" x2="38.0396" y2="-0.0726624" stroke="white" stroke-opacity="0.22" stroke-width="2.00209"/>
<line x1="58.0605" y1="538.522" x2="58.0605" y2="-0.0726624" stroke="white" stroke-opacity="0.22" stroke-width="2.00209"/>
<line x1="78.0814" y1="538.522" x2="78.0814" y2="-0.0726624" stroke="white" stroke-opacity="0.22" stroke-width="2.00209"/>
<line x1="98.1023" y1="538.522" x2="98.1023" y2="-0.0726624" stroke="white" stroke-opacity="0.22" stroke-width="2.00209"/>
<line x1="118.123" y1="538.522" x2="118.123" y2="-0.0726624" stroke="white" stroke-opacity="0.22" stroke-width="2.00209"/>
<line x1="138.144" y1="538.522" x2="138.144" y2="-0.0726624" stroke="white" stroke-opacity="0.22" stroke-width="2.00209"/>
<line x1="158.165" y1="538.522" x2="158.165" y2="-0.0726624" stroke="white" stroke-opacity="0.22" stroke-width="2.00209"/>
<line x1="178.186" y1="538.522" x2="178.186" y2="-0.0726624" stroke="white" stroke-opacity="0.22" stroke-width="2.00209"/>
<line x1="198.207" y1="538.522" x2="198.207" y2="-0.0726624" stroke="white" stroke-opacity="0.22" stroke-width="2.00209"/>
<line x1="218.228" y1="538.522" x2="218.228" y2="-0.0726624" stroke="white" stroke-opacity="0.22" stroke-width="2.00209"/>
<line x1="238.248" y1="538.522" x2="238.248" y2="-0.0726624" stroke="white" stroke-opacity="0.22" stroke-width="2.00209"/>
<line x1="258.269" y1="538.522" x2="258.269" y2="-0.0726624" stroke="white" stroke-opacity="0.22" stroke-width="2.00209"/>
<line x1="278.29" y1="538.522" x2="278.29" y2="-0.0726624" stroke="white" stroke-opacity="0.22" stroke-width="2.00209"/>
<line x1="298.311" y1="538.522" x2="298.311" y2="-0.0726624" stroke="white" stroke-opacity="0.22" stroke-width="2.00209"/>
<line x1="318.332" y1="538.522" x2="318.332" y2="-0.0726624" stroke="white" stroke-opacity="0.22" stroke-width="2.00209"/>
<line x1="338.353" y1="538.522" x2="338.353" y2="-0.0726624" stroke="white" stroke-opacity="0.22" stroke-width="2.00209"/>
<line x1="358.374" y1="538.522" x2="358.374" y2="-0.0726624" stroke="white" stroke-opacity="0.22" stroke-width="2.00209"/>
<line x1="378.395" y1="538.522" x2="378.395" y2="-0.0726624" stroke="white" stroke-opacity="0.22" stroke-width="2.00209"/>
<line x1="398.415" y1="538.522" x2="398.415" y2="-0.0726624" stroke="white" stroke-opacity="0.22" stroke-width="2.00209"/>
<line x1="418.436" y1="538.522" x2="418.436" y2="-0.0726624" stroke="white" stroke-opacity="0.22" stroke-width="2.00209"/>
<line x1="438.457" y1="538.522" x2="438.457" y2="-0.0726624" stroke="white" stroke-opacity="0.22" stroke-width="2.00209"/>
<line x1="458.478" y1="538.522" x2="458.478" y2="-0.0726624" stroke="white" stroke-opacity="0.22" stroke-width="2.00209"/>
<line x1="478.499" y1="538.522" x2="478.499" y2="-0.0726624" stroke="white" stroke-opacity="0.22" stroke-width="2.00209"/>
<line x1="498.52" y1="538.522" x2="498.52" y2="-0.0726624" stroke="white" stroke-opacity="0.22" stroke-width="2.00209"/>
</g>
<defs>
<clipPath id="clip0_5_125">
<rect y="538.506" width="538.506" height="519.081" rx="259.541" transform="rotate(-90 0 538.506)" fill="white"/>
</clipPath>
</defs>
</svg>
